<svg width="17" height="15" viewBox="0 0 17 15" fill="none" xmlns="http://www.w3.org/2000/svg">
<path fill-rule="evenodd" clip-rule="evenodd" d="M9.5 15C10.9834 15 12.4334 14.5601 13.6668 13.736C14.9002 12.9119 15.8614 11.7406 16.4291 10.3701C16.9968 8.99969 17.1453 7.49169 16.8559 6.03683C16.5665 4.58198 15.8522 3.24559 14.8033 2.1967C13.7544 1.14781 12.418 0.433502 10.9632 0.144113C9.50832 -0.145276 8.00032 0.00325173 6.62988 0.570909C5.25943 1.13857 4.08809 2.09987 3.26398 3.33324C2.43987 4.5666 2 6.01665 2 7.50001C2 9.48913 2.79017 11.3968 4.19669 12.8033C5.60322 14.2098 7.51088 15 9.5 15V15Z" fill="#F2F2F2"/>
<path fill-rule="evenodd" clip-rule="evenodd" d="M7.5 15C8.98336 15 10.4334 14.5601 11.6668 13.736C12.9002 12.9119 13.8614 11.7406 14.4291 10.3701C14.9968 8.99969 15.1453 7.49169 14.8559 6.03683C14.5665 4.58198 13.8522 3.24559 12.8033 2.1967C11.7544 1.14781 10.418 0.433502 8.96317 0.144113C7.50832 -0.145276 6.00032 0.00325173 4.62988 0.570909C3.25943 1.13857 2.08809 2.09987 1.26398 3.33324C0.439866 4.5666 0 6.01665 0 7.50001C0 9.48913 0.790171 11.3968 2.19669 12.8033C3.60322 14.2098 5.51088 15 7.5 15V15Z" fill="#F2F2F2"/>
</svg>
