<svg width="24" height="24" viewBox="0 0 24 24" fill="none" xmlns="http://www.w3.org/2000/svg">
<path fill-rule="evenodd" clip-rule="evenodd" d="M4.614 18.348C4.59531 18.5327 4.63996 18.7182 4.74062 18.8741C4.84128 19.03 4.99197 19.147 5.16794 19.206C5.34391 19.265 5.5347 19.2623 5.70898 19.1985C5.88326 19.1348 6.03066 19.0136 6.127 18.855L8.847 14.755H17.654C18.126 14.7435 18.574 14.5452 18.8999 14.2036C19.2257 13.8619 19.4027 13.405 19.392 12.933V6.55499C19.4027 6.08302 19.2257 5.62609 18.8999 5.28448C18.574 4.94288 18.126 4.74451 17.654 4.73297H6.354C5.88187 4.74425 5.43352 4.94249 5.10745 5.28412C4.78138 5.62575 4.60426 6.08285 4.615 6.55499V11.947L4.614 18.348ZM2.014 7.08002V6.55499C1.98688 5.37566 2.42871 4.23377 3.24254 3.37982C4.05637 2.52587 5.17573 2.02962 6.355 2H17.655C18.8349 2.02884 19.9551 2.52472 20.7697 3.37872C21.5844 4.23273 22.0268 5.37506 22 6.55499V12.933C22.0271 14.1132 21.5846 15.2558 20.7697 16.1099C19.9548 16.964 18.8341 17.4597 17.654 17.488H10.21L8.268 20.415C7.85869 21.0478 7.25112 21.5271 6.54037 21.7777C5.82962 22.0284 5.05581 22.0363 4.34008 21.8002C3.62435 21.5642 3.00709 21.0975 2.58492 20.4731C2.16276 19.8488 1.95951 19.1021 2.007 18.35L2 7.07397L2.014 7.08002Z" fill="#333333"/>
</svg>
