<svg width="21" height="19" viewBox="0 0 21 19" fill="none" xmlns="http://www.w3.org/2000/svg">
<path fill-rule="evenodd" clip-rule="evenodd" d="M14.1 19.0098H16.123C16.6563 19.0098 17.1678 18.7981 17.545 18.4212C17.9223 18.0443 18.1345 17.5331 18.135 16.9998L18.21 10.3528C18.6118 10.3399 19.0005 10.2067 19.3257 9.97046C19.6509 9.7342 19.8977 9.40576 20.0342 9.02765C20.1707 8.64954 20.1906 8.23913 20.0912 7.84961C19.9919 7.46009 19.7779 7.10939 19.477 6.84283L11.837 0.826843C11.2374 0.294804 10.4636 0.000976563 9.66203 0.000976562C8.86043 0.000976563 8.08662 0.294804 7.48703 0.826843L0.677033 6.84479C0.375195 7.11093 0.160665 7.46193 0.0614706 7.85193C-0.0377235 8.24193 -0.0169672 8.65281 0.121033 9.03082C0.264693 9.41965 0.523555 9.7554 0.863053 9.99323C1.20255 10.2311 1.60653 10.3596 2.02103 10.3618V16.9998C2.02183 17.5326 2.23388 18.0432 2.61069 18.4199C2.98749 18.7965 3.49828 19.0083 4.03103 19.0088H7.74104C8.30932 19.0083 8.8542 18.7824 9.25613 18.3806C9.65807 17.9789 9.88424 17.4341 9.88503 16.8658V13.5998C9.8853 13.4169 9.95808 13.2415 10.0874 13.1122C10.2168 12.9828 10.3921 12.9101 10.575 12.9098H11.27C11.453 12.9101 11.6283 12.9828 11.7576 13.1122C11.887 13.2415 11.9598 13.4169 11.96 13.5998V16.8708C11.9619 17.4377 12.188 17.9809 12.5889 18.3817C12.9899 18.7824 13.5331 19.0082 14.1 19.0098Z" fill="#FC1055"/>
</svg>
