<svg width="15" height="23" viewBox="0 0 15 23" fill="none" xmlns="http://www.w3.org/2000/svg">
<path d="M14.3 7.1C14.3 3.2 11.1 0 7.1 0C3.1 0 0 3.2 0 7.1C0 10.1 2 12.9 4.9 13.8C4.7 14 4.7 14.3 4.8 14.6C4.9 14.9 5.1 15 5.4 15.1C5.4 15.4 5.4 15.7 5.5 15.9V16C5.6 16.2 5.6 16.4 5.7 16.6C5.7 16.7 5.7 16.8 5.7 16.9C5.6 17 5.5 17.1 5.3 17.2C5.1 17.3 4.7 17.5 4.3 17.7C3.3 18.1 2.6 18.7 2.3 19.5C2 20 1.9 20.6 2 21.2C2.1 21.7 2.2 22 2.2 22C2.3 22.3 2.7 22.5 3 22.5C3.1 22.5 3.2 22.5 3.3 22.5H3.4C3.7 22.4 3.9 22.2 4 22C4.1 21.8 4.1 21.5 4 21.3C4 21.3 4 21.3 4 21.2C4 21.1 4 21 3.9 20.9C3.8 20.6 3.9 20.3 4 20.1C4.1 19.8 4.5 19.5 5 19.3C6.4 18.8 7.2 18.2 7.5 17.5C7.8 16.8 7.6 16.1 7.4 15.5C7.7 15.5 7.9 15.4 8.1 15.2C8.3 15 8.3 14.7 8.2 14.4L8.1 14.3C11.7 13.7 14.3 10.7 14.3 7.1ZM7.2 2.4C9.8 2.4 11.9 4.5 11.9 7.1C11.9 9.7 9.8 11.8 7.2 11.8C4.6 11.8 2.4 9.7 2.4 7.1C2.4 4.5 4.6 2.4 7.2 2.4Z" fill="url(#paint0_linear_1_10612)"/>
<defs>
<linearGradient id="paint0_linear_1_10612" x1="2.42283" y1="8.88502" x2="9.18572" y2="13.5661" gradientUnits="userSpaceOnUse">
<stop stop-color="#FC1055"/>
<stop offset="1" stop-color="#2FDFDC"/>
</linearGradient>
</defs>
</svg>
