<svg width="21" height="22" viewBox="0 0 21 22" fill="none" xmlns="http://www.w3.org/2000/svg">
<path d="M20.4752 18.4368C20.4359 15.1093 18.2372 12.9204 14.9098 12.9008C13.3393 12.891 11.7688 12.9008 10.1983 12.9008C8.5984 12.9008 6.99847 12.8812 5.38872 12.9008C2.54222 12.9499 0.431883 14.7756 0.0785242 17.5534C-0.0490776 18.6135 0.019631 19.703 0.00981552 20.7827C0.00981552 21.5188 0.431883 21.99 1.06008 21.9998C1.06989 21.9998 1.07971 21.9998 1.08952 21.9998C1.09934 21.9998 1.10915 21.9998 1.10915 21.9998H19.366C19.3758 21.9998 19.3758 21.9998 19.3857 21.9998C19.3955 21.9998 19.4053 21.9998 19.4151 21.9998C20.0335 21.99 20.4556 21.5385 20.4654 20.8318C20.485 20.0367 20.485 19.2318 20.4752 18.4368ZM2.16923 18.4073C2.19868 16.3264 3.4747 15.0504 5.55559 15.0406C8.67692 15.0308 11.7983 15.0308 14.9196 15.0406C17.0201 15.0504 18.2765 16.3068 18.3158 18.3975C18.3256 18.8785 18.3256 19.3594 18.3256 19.8404H2.15942C2.15942 19.3692 2.15942 18.8883 2.16923 18.4073Z" fill="#333333"/>
<path d="M10.169 11.8409C10.385 11.8115 10.6991 11.8017 11.0034 11.733C13.8793 11.1146 15.9798 8.07179 15.6559 4.99953C15.3811 2.42786 13.4278 0.445124 10.7678 0.0525032C8.37279 -0.300856 5.8502 1.16166 4.92754 3.46831C3.96562 5.88292 4.57418 8.03252 6.18393 9.94655C7.19493 11.1342 8.50039 11.7919 10.169 11.8409ZM6.95936 4.19465C7.57774 2.87937 8.64763 2.25118 9.83531 2.18247C12.3186 2.17266 13.9284 4.18484 13.4572 6.42278C13.2413 7.46322 12.7113 8.33681 11.8868 9.01408C10.8463 9.86803 9.53102 9.89747 8.4415 9.11223C6.88083 7.98345 6.21338 5.79458 6.95936 4.19465Z" fill="#333333"/>
</svg>
